<?xml version="1.0" encoding="utf-8"?>
<!-- Generator: Adobe Illustrator 18.1.1, SVG Export Plug-In . SVG Version: 6.00 Build 0)  -->
<svg version="1.1" id="Layer_1" xmlns="http://www.w3.org/2000/svg" xmlns:xlink="http://www.w3.org/1999/xlink" x="0px" y="0px"
	 viewBox="0 0 254.6 43.3" enable-background="new 0 0 254.6 43.3" xml:space="preserve">
<text transform="matrix(1 0 0 1 162.4335 10.1997)" fill="#53534F" font-family="'Balto-Medium'" font-size="12">Shots attempted</text>
<path fill="#014636" d="M648,67.6l5.2,3v6l-5.2,3l-5.2-3v-6L648,67.6z"/>
<path fill="#D0D1E6" d="M668.8,195.3l3.7,2.1v4.2l-3.7,2.1l-3.7-2.1v-4.2L668.8,195.3z"/>
<path fill="#014636" d="M559.6,238.6l5.2,3v6l-5.2,3l-5.2-3v-6L559.6,238.6z"/>
<path fill="#014636" d="M518.1,238.6l5.2,3v6l-5.2,3l-5.2-3v-6L518.1,238.6z"/>
<path fill="#014636" d="M502.5,229.6l5.2,3v6l-5.2,3l-5.2-3v-6L502.5,229.6z"/>
<path fill="#FFF7FB" d="M414.1,242.1l2.1,1.2v2.4l-2.1,1.2l-2.1-1.2v-2.4L414.1,242.1z"/>
<path fill="#ECE2F0" d="M398.6,214.1l3,1.7v3.5l-3,1.7l-3-1.7v-3.5L398.6,214.1z"/>
<path fill="#A6BDDB" d="M398.6,176.7l4.2,2.4v4.9l-4.2,2.4l-4.2-2.4v-4.9L398.6,176.7z"/>
<path fill="#67A9CF" d="M460.9,194.1l4.7,2.7v5.5l-4.7,2.7l-4.7-2.7v-5.5L460.9,194.1z"/>
<path fill="#ECE2F0" d="M570,205.1l3,1.7v3.5l-3,1.7l-3-1.7v-3.5L570,205.1z"/>
<path fill="#ECE2F0" d="M632.4,115.1l3,1.7v3.5l-3,1.7l-3-1.7v-3.5L632.4,115.1z"/>
<path fill="#D0D1E6" d="M424.5,150.3l3.7,2.1v4.2l-3.7,2.1l-3.7-2.1v-4.2L424.5,150.3z"/>
<path fill="#FFF7FB" d="M668.8,107.1l2.1,1.2v2.4l-2.1,1.2l-2.1-1.2v-2.4L668.8,107.1z"/>
<path fill="#02818A" d="M502.5,211.6l5.2,3v6l-5.2,3l-5.2-3v-6L502.5,211.6z"/>
<path fill="#D0D1E6" d="M622,60.3l3.7,2.1v4.2l-3.7,2.1l-3.7-2.1v-4.2L622,60.3z"/>
<path fill="#D0D1E6" d="M497.3,240.3l3.7,2.1v4.2l-3.7,2.1l-3.7-2.1v-4.2L497.3,240.3z"/>
<path fill="#ECE2F0" d="M590.8,169.1l3,1.7v3.5l-3,1.7l-3-1.7v-3.5L590.8,169.1z"/>
<path fill="#A6BDDB" d="M507.7,203.7l4.2,2.4v4.9l-4.2,2.4l-4.2-2.4v-4.9L507.7,203.7z"/>
<path fill="#ECE2F0" d="M575.2,214.1l3,1.7v3.5l-3,1.7l-3-1.7v-3.5L575.2,214.1z"/>
<path fill="#FFF7FB" d="M445.3,206.1l2.1,1.2v2.4l-2.1,1.2l-2.1-1.2v-2.4L445.3,206.1z"/>
<path fill="#014636" d="M549.2,238.6l5.2,3v6l-5.2,3l-5.2-3v-6L549.2,238.6z"/>
<path fill="#ECE2F0" d="M341.4,223.1l3,1.7v3.5l-3,1.7l-3-1.7v-3.5L341.4,223.1z"/>
<path fill="#FFF7FB" d="M403.8,206.1l2.1,1.2v2.4l-2.1,1.2l-2.1-1.2v-2.4L403.8,206.1z"/>
<path fill="#014636" d="M554.4,229.6l5.2,3v6l-5.2,3l-5.2-3v-6L554.4,229.6z"/>
<path fill="#FFF7FB" d="M674,116.1l2.1,1.2v2.4L674,121l-2.1-1.2v-2.4L674,116.1z"/>
<path fill="#FFF7FB" d="M715.5,242.1l2.1,1.2v2.4l-2.1,1.2l-2.1-1.2v-2.4L715.5,242.1z"/>
<path fill="#A6BDDB" d="M497.3,167.7l4.2,2.4v4.9l-4.2,2.4L493,175v-4.9L497.3,167.7z"/>
<path fill="#014636" d="M528.5,238.6l5.2,3v6l-5.2,3l-5.2-3v-6L528.5,238.6z"/>
<path fill="#FFF7FB" d="M533.7,89.1l2.1,1.2v2.4l-2.1,1.2l-2.1-1.2v-2.4L533.7,89.1z"/>
<path fill="#014636" d="M544.1,229.6l5.2,3v6l-5.2,3l-5.2-3v-6L544.1,229.6z"/>
<path fill="#014636" d="M533.7,211.6l5.2,3v6l-5.2,3l-5.2-3v-6L533.7,211.6z"/>
<path fill="#A6BDDB" d="M570,185.7l4.2,2.4v4.9l-4.2,2.4l-4.2-2.4v-4.9L570,185.7z"/>
<path fill="#ECE2F0" d="M601.2,151.1l3,1.7v3.5l-3,1.7l-3-1.7v-3.5L601.2,151.1z"/>
<path fill="#014636" d="M549.2,220.6l5.2,3v6l-5.2,3l-5.2-3v-6L549.2,220.6z"/>
<path fill="#D0D1E6" d="M450.5,87.3l3.7,2.1v4.2l-3.7,2.1l-3.7-2.1v-4.2L450.5,87.3z"/>
<path fill="#FFF7FB" d="M424.5,80.1l2.1,1.2v2.4l-2.1,1.2l-2.1-1.2v-2.4L424.5,80.1z"/>
<path fill="#014636" d="M663.6,76.6l5.2,3v6l-5.2,3l-5.2-3v-6L663.6,76.6z"/>
<path fill="#A6BDDB" d="M601.2,113.7l4.2,2.4v4.9l-4.2,2.4L597,121v-4.9L601.2,113.7z"/>
<path fill="#014636" d="M533.7,229.6l5.2,3v6l-5.2,3l-5.2-3v-6L533.7,229.6z"/>
<path fill="#FFF7FB" d="M497.3,206.1l2.1,1.2v2.4l-2.1,1.2l-2.1-1.2v-2.4L497.3,206.1z"/>
<path fill="#ECE2F0" d="M663.6,151.1l3,1.7v3.5l-3,1.7l-3-1.7v-3.5L663.6,151.1z"/>
<path fill="#ECE2F0" d="M632.4,61.1l3,1.7v3.5l-3,1.7l-3-1.7v-3.5L632.4,61.1z"/>
<path fill="#A6BDDB" d="M715.5,131.7l4.2,2.4v4.9l-4.2,2.4l-4.2-2.4v-4.9L715.5,131.7z"/>
<path fill="#A6BDDB" d="M445.3,59.7l4.2,2.4V67l-4.2,2.4l-4.2-2.4v-4.9L445.3,59.7z"/>
<path fill="#014636" d="M538.9,220.6l5.2,3v6l-5.2,3l-5.2-3v-6L538.9,220.6z"/>
<path fill="#ECE2F0" d="M445.3,115.1l3,1.7v3.5l-3,1.7l-3-1.7v-3.5L445.3,115.1z"/>
<path fill="#FFF7FB" d="M741.5,197.1l2.1,1.2v2.4l-2.1,1.2l-2.1-1.2v-2.4L741.5,197.1z"/>
<path fill="#014636" d="M523.3,229.6l5.2,3v6l-5.2,3l-5.2-3v-6L523.3,229.6z"/>
<path fill="#ECE2F0" d="M549.2,187.1l3,1.7v3.5l-3,1.7l-3-1.7v-3.5L549.2,187.1z"/>
<path fill="#014636" d="M674,76.6l5.2,3v6l-5.2,3l-5.2-3v-6L674,76.6z"/>
<path fill="#A6BDDB" d="M580.4,167.7l4.2,2.4v4.9l-4.2,2.4l-4.2-2.4v-4.9L580.4,167.7z"/>
<path fill="#FFF7FB" d="M746.7,188.1l2.1,1.2v2.4l-2.1,1.2l-2.1-1.2v-2.4L746.7,188.1z"/>
<path fill="#ECE2F0" d="M450.5,124.1l3,1.7v3.5l-3,1.7l-3-1.7v-3.5L450.5,124.1z"/>
<path fill="#014636" d="M528.5,220.6l5.2,3v6l-5.2,3l-5.2-3v-6L528.5,220.6z"/>
<path fill="#ECE2F0" d="M460.9,106.1l3,1.7v3.5l-3,1.7l-3-1.7v-3.5L460.9,106.1z"/>
<path fill="#ECE2F0" d="M403.8,133.1l3,1.7v3.5l-3,1.7l-3-1.7v-3.5L403.8,133.1z"/>
<path fill="#D0D1E6" d="M642.8,240.3l3.7,2.1v4.2l-3.7,2.1l-3.7-2.1v-4.2L642.8,240.3z"/>
<path fill="#ECE2F0" d="M507.7,151.1l3,1.7v3.5l-3,1.7l-3-1.7v-3.5L507.7,151.1z"/>
<path fill="#FFF7FB" d="M518.1,206.1l2.1,1.2v2.4l-2.1,1.2l-2.1-1.2v-2.4L518.1,206.1z"/>
<path fill="#A6BDDB" d="M538.9,203.7l4.2,2.4v4.9l-4.2,2.4l-4.2-2.4v-4.9L538.9,203.7z"/>
<path fill="#A6BDDB" d="M694.7,113.7l4.2,2.4v4.9l-4.2,2.4l-4.2-2.4v-4.9L694.7,113.7z"/>
<path fill="#FFF7FB" d="M736.3,242.1l2.1,1.2v2.4l-2.1,1.2l-2.1-1.2v-2.4L736.3,242.1z"/>
<path fill="#FFF7FB" d="M611.6,62.1l2.1,1.2v2.4l-2.1,1.2l-2.1-1.2v-2.4L611.6,62.1z"/>
<path fill="#FFF7FB" d="M403.8,242.1l2.1,1.2v2.4l-2.1,1.2l-2.1-1.2v-2.4L403.8,242.1z"/>
<path fill="#02818A" d="M544.1,211.6l5.2,3v6l-5.2,3l-5.2-3v-6L544.1,211.6z"/>
<path fill="#ECE2F0" d="M440.1,52.1l3,1.7v3.5l-3,1.7l-3-1.7v-3.5L440.1,52.1z"/>
<path fill="#FFF7FB" d="M523.3,53.1l2.1,1.2v2.4l-2.1,1.2l-2.1-1.2v-2.4L523.3,53.1z"/>
<path fill="#014636" d="M538.9,238.6l5.2,3v6l-5.2,3l-5.2-3v-6L538.9,238.6z"/>
<path fill="#FFF7FB" d="M512.9,197.1l2.1,1.2v2.4l-2.1,1.2l-2.1-1.2v-2.4L512.9,197.1z"/>
<path fill="#ECE2F0" d="M492.1,160.1l3,1.7v3.5l-3,1.7l-3-1.7v-3.5L492.1,160.1z"/>
<path fill="#FFF7FB" d="M429.7,17.1l2.1,1.2v2.4l-2.1,1.2l-2.1-1.2v-2.4L429.7,17.1z"/>
<path fill="#FFF7FB" d="M434.9,116.1l2.1,1.2v2.4l-2.1,1.2l-2.1-1.2v-2.4L434.9,116.1z"/>
<path fill="#A6BDDB" d="M528.5,185.7l4.2,2.4v4.9l-4.2,2.4l-4.2-2.4v-4.9L528.5,185.7z"/>
<path fill="#FFF7FB" d="M575.2,161.1l2.1,1.2v2.4l-2.1,1.2l-2.1-1.2v-2.4L575.2,161.1z"/>
<path fill="#FFF7FB" d="M637.6-234.9l2.1,1.2v2.4l-2.1,1.2l-2.1-1.2v-2.4L637.6-234.9z"/>
<path fill="#ECE2F0" d="M523.3,124.1l3,1.7v3.5l-3,1.7l-3-1.7v-3.5L523.3,124.1z"/>
<path fill="#FFF7FB" d="M658.4,251.1l2.1,1.2v2.4l-2.1,1.2l-2.1-1.2v-2.4L658.4,251.1z"/>
<path fill="#FFF7FB" d="M362.2,242.1l2.1,1.2v2.4l-2.1,1.2l-2.1-1.2v-2.4L362.2,242.1z"/>
<path fill="#ECE2F0" d="M481.7,88.1l3,1.7v3.5l-3,1.7l-3-1.7v-3.5L481.7,88.1z"/>
<path fill="#A6BDDB" d="M450.5,104.7l4.2,2.4v4.9l-4.2,2.4l-4.2-2.4v-4.9L450.5,104.7z"/>
<path fill="#D0D1E6" d="M533.7,69.3l3.7,2.1v4.2l-3.7,2.1l-3.7-2.1v-4.2L533.7,69.3z"/>
<path fill="#FFF7FB" d="M341.4,188.1l2.1,1.2v2.4l-2.1,1.2l-2.1-1.2v-2.4L341.4,188.1z"/>
<path fill="#FFF7FB" d="M715.5,224.1l2.1,1.2v2.4l-2.1,1.2l-2.1-1.2v-2.4L715.5,224.1z"/>
<path fill="#FFF7FB" d="M663.6,170.1l2.1,1.2v2.4l-2.1,1.2l-2.1-1.2v-2.4L663.6,170.1z"/>
<path fill="#014636" d="M518.1,220.6l5.2,3v6l-5.2,3l-5.2-3v-6L518.1,220.6z"/>
<path fill="#FFF7FB" d="M741.5,215.1l2.1,1.2v2.4l-2.1,1.2l-2.1-1.2v-2.4L741.5,215.1z"/>
<path fill="#016C59" d="M668.8,139.6l5.2,3v6l-5.2,3l-5.2-3v-6L668.8,139.6z"/>
<path fill="#ECE2F0" d="M512.9,70.1l3,1.7v3.5l-3,1.7l-3-1.7v-3.5L512.9,70.1z"/>
<path fill="#A6BDDB" d="M538.9,185.7l4.2,2.4v4.9l-4.2,2.4l-4.2-2.4v-4.9L538.9,185.7z"/>
<path fill="#A6BDDB" d="M637.6,104.7l4.2,2.4v4.9l-4.2,2.4l-4.2-2.4v-4.9L637.6,104.7z"/>
<path fill="#A6BDDB" d="M481.7,230.7l4.2,2.4v4.9l-4.2,2.4l-4.2-2.4v-4.9L481.7,230.7z"/>
<path fill="#67A9CF" d="M523.3,212.1l4.7,2.7v5.5l-4.7,2.7l-4.7-2.7v-5.5L523.3,212.1z"/>
<path fill="#ECE2F0" d="M429.7,106.1l3,1.7v3.5l-3,1.7l-3-1.7v-3.5L429.7,106.1z"/>
<path fill="#FFF7FB" d="M575.2,233.1l2.1,1.2v2.4l-2.1,1.2l-2.1-1.2v-2.4L575.2,233.1z"/>
<path fill="#ECE2F0" d="M653.2,115.1l3,1.7v3.5l-3,1.7l-3-1.7v-3.5L653.2,115.1z"/>
<path fill="#67A9CF" d="M699.9,104.1l4.7,2.7v5.5l-4.7,2.7l-4.7-2.7v-5.5L699.9,104.1z"/>
<path fill="#02818A" d="M424.5,58.6l5.2,3v6l-5.2,3l-5.2-3v-6L424.5,58.6z"/>
<path fill="#A6BDDB" d="M424.5,95.7l4.2,2.4v4.9l-4.2,2.4l-4.2-2.4v-4.9L424.5,95.7z"/>
<path fill="#D0D1E6" d="M393.4,240.3l3.7,2.1v4.2l-3.7,2.1l-3.7-2.1v-4.2L393.4,240.3z"/>
<path fill="#3690C0" d="M414.1,130.6l5.2,3v6l-5.2,3l-5.2-3v-6L414.1,130.6z"/>
<path fill="#D0D1E6" d="M653.2,78.3l3.7,2.1v4.2l-3.7,2.1l-3.7-2.1v-4.2L653.2,78.3z"/>
<path fill="#A6BDDB" d="M554.4,68.7l4.2,2.4V76l-4.2,2.4l-4.2-2.4v-4.9L554.4,68.7z"/>
<path fill="#D0D1E6" d="M424.5,114.3l3.7,2.1v4.2l-3.7,2.1l-3.7-2.1v-4.2L424.5,114.3z"/>
<path fill="#016C59" d="M668.8,85.6l5.2,3v6l-5.2,3l-5.2-3v-6L668.8,85.6z"/>
<path fill="#A6BDDB" d="M518.1,185.7l4.2,2.4v4.9l-4.2,2.4l-4.2-2.4v-4.9L518.1,185.7z"/>
<path fill="#3690C0" d="M544.1,31.6l5.2,3v6l-5.2,3l-5.2-3v-6L544.1,31.6z"/>
<path fill="#67A9CF" d="M512.9,248.1l4.7,2.7v5.5l-4.7,2.7l-4.7-2.7v-5.5L512.9,248.1z"/>
<path fill="#FFF7FB" d="M393.4,188.1l2.1,1.2v2.4l-2.1,1.2l-2.1-1.2v-2.4L393.4,188.1z"/>
<path fill="#FFF7FB" d="M497.3,62.1l2.1,1.2v2.4l-2.1,1.2l-2.1-1.2v-2.4L497.3,62.1z"/>
<path fill="#D0D1E6" d="M440.1,105.3l3.7,2.1v4.2l-3.7,2.1l-3.7-2.1v-4.2L440.1,105.3z"/>
<path fill="#ECE2F0" d="M528.5,79.1l3,1.7v3.5l-3,1.7l-3-1.7v-3.5L528.5,79.1z"/>
<path fill="#ECE2F0" d="M538.9,79.1l3,1.7v3.5l-3,1.7l-3-1.7v-3.5L538.9,79.1z"/>
<path fill="#D0D1E6" d="M554.4,87.3l3.7,2.1v4.2l-3.7,2.1l-3.7-2.1v-4.2L554.4,87.3z"/>
<path fill="#FFF7FB" d="M679.2,233.1l2.1,1.2v2.4l-2.1,1.2l-2.1-1.2v-2.4L679.2,233.1z"/>
<path fill="#FFF7FB" d="M486.9,98.1l2.1,1.2v2.4l-2.1,1.2l-2.1-1.2v-2.4L486.9,98.1z"/>
<path fill="#FFF7FB" d="M689.5,71.1l2.1,1.2v2.4l-2.1,1.2l-2.1-1.2v-2.4L689.5,71.1z"/>
<path fill="#67A9CF" d="M533.7,32.1l4.7,2.7v5.5l-4.7,2.7l-4.7-2.7v-5.5L533.7,32.1z"/>
<path fill="#FFF7FB" d="M455.7,188.1l2.1,1.2v2.4l-2.1,1.2l-2.1-1.2v-2.4L455.7,188.1z"/>
<path fill="#67A9CF" d="M414.1,59.1l4.7,2.7v5.5l-4.7,2.7l-4.7-2.7v-5.5L414.1,59.1z"/>
<path fill="#67A9CF" d="M694.7,95.1l4.7,2.7v5.5l-4.7,2.7l-4.7-2.7v-5.5L694.7,95.1z"/>
<path fill="#A6BDDB" d="M554.4,212.7l4.2,2.4v4.9l-4.2,2.4l-4.2-2.4v-4.9L554.4,212.7z"/>
<path fill="#ECE2F0" d="M622,133.1l3,1.7v3.5l-3,1.7l-3-1.7v-3.5L622,133.1z"/>
<path fill="#FFF7FB" d="M663.6,206.1l2.1,1.2v2.4l-2.1,1.2l-2.1-1.2v-2.4L663.6,206.1z"/>
<path fill="#D0D1E6" d="M414.1,222.3l3.7,2.1v4.2l-3.7,2.1l-3.7-2.1v-4.2L414.1,222.3z"/>
<path fill="#FFF7FB" d="M585.6,107.1l2.1,1.2v2.4l-2.1,1.2l-2.1-1.2v-2.4L585.6,107.1z"/>
<path fill="#02818A" d="M533.7,247.6l5.2,3v6l-5.2,3l-5.2-3v-6L533.7,247.6z"/>
<path fill="#ECE2F0" d="M523.3,196.1l3,1.7v3.5l-3,1.7l-3-1.7v-3.5L523.3,196.1z"/>
<path fill="#A6BDDB" d="M507.7,221.7l4.2,2.4v4.9l-4.2,2.4l-4.2-2.4v-4.9L507.7,221.7z"/>
<path fill="#3690C0" d="M455.7,202.6l5.2,3v6l-5.2,3l-5.2-3v-6L455.7,202.6z"/>
<path fill="#FFF7FB" d="M393.4,152.1l2.1,1.2v2.4l-2.1,1.2l-2.1-1.2v-2.4L393.4,152.1z"/>
<path fill="#FFF7FB" d="M668.8,251.1l2.1,1.2v2.4l-2.1,1.2l-2.1-1.2v-2.4L668.8,251.1z"/>
<path fill="#D0D1E6" d="M663.6,186.3l3.7,2.1v4.2l-3.7,2.1l-3.7-2.1v-4.2L663.6,186.3z"/>
<path fill="#FFF7FB" d="M512.9,179.1l2.1,1.2v2.4l-2.1,1.2l-2.1-1.2v-2.4L512.9,179.1z"/>
<path fill="#67A9CF" d="M460.9,212.1l4.7,2.7v5.5l-4.7,2.7l-4.7-2.7v-5.5L460.9,212.1z"/>
<path fill="#FFF7FB" d="M414.1,260.1l2.1,1.2v2.4l-2.1,1.2l-2.1-1.2v-2.4L414.1,260.1z"/>
<path fill="#D0D1E6" d="M528.5,204.3l3.7,2.1v4.2l-3.7,2.1l-3.7-2.1v-4.2L528.5,204.3z"/>
<path fill="#FFF7FB" d="M596,71.1l2.1,1.2v2.4L596,76l-2.1-1.2v-2.4L596,71.1z"/>
<path fill="#ECE2F0" d="M367.4,106.1l3,1.7v3.5l-3,1.7l-3-1.7v-3.5L367.4,106.1z"/>
<path fill="#ECE2F0" d="M372.6,97.1l3,1.7v3.5l-3,1.7l-3-1.7v-3.5L372.6,97.1z"/>
<path fill="#D0D1E6" d="M351.8,114.3l3.7,2.1v4.2l-3.7,2.1l-3.7-2.1v-4.2L351.8,114.3z"/>
<path fill="#3690C0" d="M601.2,40.6l5.2,3v6l-5.2,3l-5.2-3v-6L601.2,40.6z"/>
<path fill="#FFF7FB" d="M409,107.1l2.1,1.2v2.4L409,112l-2.1-1.2v-2.4L409,107.1z"/>
<path fill="#D0D1E6" d="M450.5,51.3l3.7,2.1v4.2l-3.7,2.1l-3.7-2.1v-4.2L450.5,51.3z"/>
<path fill="#ECE2F0" d="M523.3,160.1l3,1.7v3.5l-3,1.7l-3-1.7v-3.5L523.3,160.1z"/>
<path fill="#ECE2F0" d="M580.4,43.1l3,1.7v3.5l-3,1.7l-3-1.7v-3.5L580.4,43.1z"/>
<path fill="#FFF7FB" d="M377.8,161.1l2.1,1.2v2.4l-2.1,1.2l-2.1-1.2v-2.4L377.8,161.1z"/>
<path fill="#FFF7FB" d="M383,206.1l2.1,1.2v2.4L383,211l-2.1-1.2v-2.4L383,206.1z"/>
<path fill="#A6BDDB" d="M658.4,122.7l4.2,2.4v4.9l-4.2,2.4l-4.2-2.4v-4.9L658.4,122.7z"/>
<path fill="#A6BDDB" d="M455.7,221.7l4.2,2.4v4.9l-4.2,2.4l-4.2-2.4v-4.9L455.7,221.7z"/>
<path fill="#FFF7FB" d="M585.6,143.1l2.1,1.2v2.4l-2.1,1.2l-2.1-1.2v-2.4L585.6,143.1z"/>
<path fill="#ECE2F0" d="M481.7,160.1l3,1.7v3.5l-3,1.7l-3-1.7v-3.5L481.7,160.1z"/>
<path fill="#ECE2F0" d="M684.3,241.1l3,1.7v3.5l-3,1.7l-3-1.7v-3.5L684.3,241.1z"/>
<path fill="#ECE2F0" d="M466.1,187.1l3,1.7v3.5l-3,1.7l-3-1.7v-3.5L466.1,187.1z"/>
<path fill="#ECE2F0" d="M642.8,151.1l3,1.7v3.5l-3,1.7l-3-1.7v-3.5L642.8,151.1z"/>
<path fill="#FFF7FB" d="M596,143.1l2.1,1.2v2.4L596,148l-2.1-1.2v-2.4L596,143.1z"/>
<path fill="#FFF7FB" d="M502.5,251.1l2.1,1.2v2.4l-2.1,1.2l-2.1-1.2v-2.4L502.5,251.1z"/>
<path fill="#D0D1E6" d="M486.9,42.3l3.7,2.1v4.2l-3.7,2.1l-3.7-2.1v-4.2L486.9,42.3z"/>
<path fill="#D0D1E6" d="M554.4,33.3l3.7,2.1v4.2l-3.7,2.1l-3.7-2.1v-4.2L554.4,33.3z"/>
<path fill="#FFF7FB" d="M648,143.1l2.1,1.2v2.4L648,148l-2.1-1.2v-2.4L648,143.1z"/>
<path fill="#ECE2F0" d="M362.2,115.1l3,1.7v3.5l-3,1.7l-3-1.7v-3.5L362.2,115.1z"/>
<path fill="#A6BDDB" d="M627.2,50.7l4.2,2.4V58l-4.2,2.4l-4.2-2.4v-4.9L627.2,50.7z"/>
<path fill="#ECE2F0" d="M486.9,187.1l3,1.7v3.5l-3,1.7l-3-1.7v-3.5L486.9,187.1z"/>
<path fill="#A6BDDB" d="M481.7,194.7l4.2,2.4v4.9l-4.2,2.4l-4.2-2.4v-4.9L481.7,194.7z"/>
<path fill="#ECE2F0" d="M471.3,106.1l3,1.7v3.5l-3,1.7l-3-1.7v-3.5L471.3,106.1z"/>
<path fill="#ECE2F0" d="M336.2,214.1l3,1.7v3.5l-3,1.7l-3-1.7v-3.5L336.2,214.1z"/>
<path fill="#D0D1E6" d="M512.9,213.3l3.7,2.1v4.2l-3.7,2.1l-3.7-2.1v-4.2L512.9,213.3z"/>
<path fill="#ECE2F0" d="M606.4,124.1l3,1.7v3.5l-3,1.7l-3-1.7v-3.5L606.4,124.1z"/>
<path fill="#ECE2F0" d="M559.6,43.1l3,1.7v3.5l-3,1.7l-3-1.7v-3.5L559.6,43.1z"/>
<path fill="#014636" d="M668.8,67.6l5.2,3v6l-5.2,3l-5.2-3v-6L668.8,67.6z"/>
<path fill="#A6BDDB" d="M466.1,131.7l4.2,2.4v4.9l-4.2,2.4l-4.2-2.4v-4.9L466.1,131.7z"/>
<path fill="#67A9CF" d="M507.7,239.1l4.7,2.7v5.5l-4.7,2.7l-4.7-2.7v-5.5L507.7,239.1z"/>
<path fill="#ECE2F0" d="M528.5,169.1l3,1.7v3.5l-3,1.7l-3-1.7v-3.5L528.5,169.1z"/>
<path fill="#ECE2F0" d="M679.2,142.1l3,1.7v3.5l-3,1.7l-3-1.7v-3.5L679.2,142.1z"/>
<path fill="#FFF7FB" d="M518.1,98.1l2.1,1.2v2.4l-2.1,1.2l-2.1-1.2v-2.4L518.1,98.1z"/>
<path fill="#3690C0" d="M663.6,130.6l5.2,3v6l-5.2,3l-5.2-3v-6L663.6,130.6z"/>
<path fill="#FFF7FB" d="M497.3,98.1l2.1,1.2v2.4l-2.1,1.2l-2.1-1.2v-2.4L497.3,98.1z"/>
<path fill="#ECE2F0" d="M549.2,205.1l3,1.7v3.5l-3,1.7l-3-1.7v-3.5L549.2,205.1z"/>
<path fill="#FFF7FB" d="M523.3,35.1l2.1,1.2v2.4l-2.1,1.2l-2.1-1.2v-2.4L523.3,35.1z"/>
<path fill="#FFF7FB" d="M486.9,116.1l2.1,1.2v2.4l-2.1,1.2l-2.1-1.2v-2.4L486.9,116.1z"/>
<path fill="#FFF7FB" d="M575.2,143.1l2.1,1.2v2.4l-2.1,1.2l-2.1-1.2v-2.4L575.2,143.1z"/>
<path fill="#FFF7FB" d="M606.4,233.1l2.1,1.2v2.4l-2.1,1.2l-2.1-1.2v-2.4L606.4,233.1z"/>
<path fill="#FFF7FB" d="M533.7,179.1l2.1,1.2v2.4l-2.1,1.2l-2.1-1.2v-2.4L533.7,179.1z"/>
<path fill="#016C59" d="M403.8,76.6l5.2,3v6l-5.2,3l-5.2-3v-6L403.8,76.6z"/>
<path fill="#D0D1E6" d="M720.7,141.3l3.7,2.1v4.2l-3.7,2.1l-3.7-2.1v-4.2L720.7,141.3z"/>
<path fill="#A6BDDB" d="M684.3,77.7l4.2,2.4V85l-4.2,2.4l-4.2-2.4v-4.9L684.3,77.7z"/>
<path fill="#FFF7FB" d="M611.6,170.1l2.1,1.2v2.4l-2.1,1.2l-2.1-1.2v-2.4L611.6,170.1z"/>
<path fill="#67A9CF" d="M476.5,149.1l4.7,2.7v5.5l-4.7,2.7l-4.7-2.7v-5.5L476.5,149.1z"/>
<path fill="#014636" d="M512.9,229.6l5.2,3v6l-5.2,3l-5.2-3v-6L512.9,229.6z"/>
<path fill="#D0D1E6" d="M590.8,240.3l3.7,2.1v4.2l-3.7,2.1l-3.7-2.1v-4.2L590.8,240.3z"/>
<path fill="#D0D1E6" d="M544.1,195.3l3.7,2.1v4.2l-3.7,2.1l-3.7-2.1v-4.2L544.1,195.3z"/>
<path fill="#ECE2F0" d="M336.2,232.1l3,1.7v3.5l-3,1.7l-3-1.7v-3.5L336.2,232.1z"/>
<path fill="#FFF7FB" d="M440.1,233.1l2.1,1.2v2.4l-2.1,1.2l-2.1-1.2v-2.4L440.1,233.1z"/>
<path fill="#ECE2F0" d="M632.4,97.1l3,1.7v3.5l-3,1.7l-3-1.7v-3.5L632.4,97.1z"/>
<path fill="#ECE2F0" d="M590.8,97.1l3,1.7v3.5l-3,1.7l-3-1.7v-3.5L590.8,97.1z"/>
<path fill="#ECE2F0" d="M523.3,178.1l3,1.7v3.5l-3,1.7l-3-1.7v-3.5L523.3,178.1z"/>
<path fill="#67A9CF" d="M590.8,41.1l4.7,2.7v5.5l-4.7,2.7l-4.7-2.7v-5.5L590.8,41.1z"/>
<path fill="#ECE2F0" d="M554.4,178.1l3,1.7v3.5l-3,1.7l-3-1.7v-3.5L554.4,178.1z"/>
<path fill="#FFF7FB" d="M398.6,125.1l2.1,1.2v2.4l-2.1,1.2l-2.1-1.2v-2.4L398.6,125.1z"/>
<path fill="#A6BDDB" d="M653.2,131.7l4.2,2.4v4.9l-4.2,2.4l-4.2-2.4v-4.9L653.2,131.7z"/>
<path fill="#3690C0" d="M564.8,229.6l5.2,3v6l-5.2,3l-5.2-3v-6L564.8,229.6z"/>
<path fill="#FFF7FB" d="M616.8,89.1l2.1,1.2v2.4l-2.1,1.2l-2.1-1.2v-2.4L616.8,89.1z"/>
<path fill="#A6BDDB" d="M351.8,131.7l4.2,2.4v4.9l-4.2,2.4l-4.2-2.4v-4.9L351.8,131.7z"/>
<path fill="#FFF7FB" d="M492.1,71.1l2.1,1.2v2.4l-2.1,1.2l-2.1-1.2v-2.4L492.1,71.1z"/>
<path fill="#A6BDDB" d="M710.3,122.7l4.2,2.4v4.9l-4.2,2.4l-4.2-2.4v-4.9L710.3,122.7z"/>
<path fill="#ECE2F0" d="M538.9,133.1l3,1.7v3.5l-3,1.7l-3-1.7v-3.5L538.9,133.1z"/>
<path fill="#ECE2F0" d="M668.8,232.1l3,1.7v3.5l-3,1.7l-3-1.7v-3.5L668.8,232.1z"/>
<path fill="#D0D1E6" d="M544.1,249.3l3.7,2.1v4.2l-3.7,2.1l-3.7-2.1v-4.2L544.1,249.3z"/>
<path fill="#ECE2F0" d="M538.9,169.1l3,1.7v3.5l-3,1.7l-3-1.7v-3.5L538.9,169.1z"/>
<path fill="#ECE2F0" d="M533.7-91.9l3,1.7v3.5l-3,1.7l-3-1.7v-3.5L533.7-91.9z"/>
<path fill="#FFF7FB" d="M684.3,152.1l2.1,1.2v2.4l-2.1,1.2l-2.1-1.2v-2.4L684.3,152.1z"/>
<path fill="#FFF7FB" d="M424.5,26.1l2.1,1.2v2.4l-2.1,1.2l-2.1-1.2v-2.4L424.5,26.1z"/>
<path fill="#A6BDDB" d="M486.9,221.7l4.2,2.4v4.9l-4.2,2.4l-4.2-2.4v-4.9L486.9,221.7z"/>
<path fill="#FFF7FB" d="M362.2,134.1l2.1,1.2v2.4l-2.1,1.2l-2.1-1.2v-2.4L362.2,134.1z"/>
<path fill="#FFF7FB" d="M460.9,89.1l2.1,1.2v2.4l-2.1,1.2l-2.1-1.2v-2.4L460.9,89.1z"/>
<path fill="#D0D1E6" d="M596,105.3l3.7,2.1v4.2l-3.7,2.1l-3.7-2.1v-4.2L596,105.3z"/>
<path fill="#D0D1E6" d="M507.7,186.3l3.7,2.1v4.2l-3.7,2.1l-3.7-2.1v-4.2L507.7,186.3z"/>
<path fill="#FFF7FB" d="M372.6,224.1l2.1,1.2v2.4l-2.1,1.2l-2.1-1.2v-2.4L372.6,224.1z"/>
<path fill="#FFF7FB" d="M575.2,89.1l2.1,1.2v2.4l-2.1,1.2l-2.1-1.2v-2.4L575.2,89.1z"/>
<path fill="#A6BDDB" d="M674,95.7l4.2,2.4v4.9l-4.2,2.4l-4.2-2.4v-4.9L674,95.7z"/>
<path fill="#016C59" d="M642.8,58.6l5.2,3v6l-5.2,3l-5.2-3v-6L642.8,58.6z"/>
<path fill="#02818A" d="M554.4,193.6l5.2,3v6l-5.2,3l-5.2-3v-6L554.4,193.6z"/>
<path fill="#02818A" d="M637.6,49.6l5.2,3v6l-5.2,3l-5.2-3v-6L637.6,49.6z"/>
<path fill="#FFF7FB" d="M575.2,179.1l2.1,1.2v2.4l-2.1,1.2l-2.1-1.2v-2.4L575.2,179.1z"/>
<path fill="#D0D1E6" d="M429.7,213.3l3.7,2.1v4.2l-3.7,2.1l-3.7-2.1v-4.2L429.7,213.3z"/>
<path fill="#FFF7FB" d="M419.3,107.1l2.1,1.2v2.4l-2.1,1.2l-2.1-1.2v-2.4L419.3,107.1z"/>
<path fill="#D0D1E6" d="M403.8,222.3l3.7,2.1v4.2l-3.7,2.1l-3.7-2.1v-4.2L403.8,222.3z"/>
<path fill="#A6BDDB" d="M486.9,203.7l4.2,2.4v4.9l-4.2,2.4l-4.2-2.4v-4.9L486.9,203.7z"/>
<path fill="#FFF7FB" d="M403.8-63.9l2.1,1.2v2.4l-2.1,1.2l-2.1-1.2v-2.4L403.8-63.9z"/>
<path fill="#FFF7FB" d="M486.9,152.1l2.1,1.2v2.4l-2.1,1.2l-2.1-1.2v-2.4L486.9,152.1z"/>
<path fill="#FFF7FB" d="M367.4,251.1l2.1,1.2v2.4l-2.1,1.2l-2.1-1.2v-2.4L367.4,251.1z"/>
<path fill="#FFF7FB" d="M497.3,188.1l2.1,1.2v2.4l-2.1,1.2l-2.1-1.2v-2.4L497.3,188.1z"/>
<path fill="#A6BDDB" d="M575.2,32.7l4.2,2.4V40l-4.2,2.4L571,40v-4.9L575.2,32.7z"/>
<path fill="#FFF7FB" d="M346.6,161.1l2.1,1.2v2.4l-2.1,1.2l-2.1-1.2v-2.4L346.6,161.1z"/>
<path fill="#FFF7FB" d="M544.1,143.1l2.1,1.2v2.4l-2.1,1.2l-2.1-1.2v-2.4L544.1,143.1z"/>
<path fill="#FFF7FB" d="M648-72.9l2.1,1.2v2.4L648-68l-2.1-1.2v-2.4L648-72.9z"/>
<path fill="#FFF7FB" d="M481.7,179.1l2.1,1.2v2.4l-2.1,1.2l-2.1-1.2v-2.4L481.7,179.1z"/>
<path fill="#FFF7FB" d="M564.8,197.1l2.1,1.2v2.4l-2.1,1.2l-2.1-1.2v-2.4L564.8,197.1z"/>
<path fill="#ECE2F0" d="M544.1,106.1l3,1.7v3.5l-3,1.7l-3-1.7v-3.5L544.1,106.1z"/>
<path fill="#FFF7FB" d="M627.2,89.1l2.1,1.2v2.4l-2.1,1.2l-2.1-1.2v-2.4L627.2,89.1z"/>
<path fill="#FFF7FB" d="M471.3,71.1l2.1,1.2v2.4l-2.1,1.2l-2.1-1.2v-2.4L471.3,71.1z"/>
<path fill="#FFF7FB" d="M383-81.9l2.1,1.2v2.4L383-77l-2.1-1.2v-2.4L383-81.9z"/>
<path fill="#A6BDDB" d="M445.3,221.7l4.2,2.4v4.9l-4.2,2.4l-4.2-2.4v-4.9L445.3,221.7z"/>
<path fill="#A6BDDB" d="M409,68.7l4.2,2.4V76l-4.2,2.4l-4.2-2.4v-4.9L409,68.7z"/>
<path fill="#ECE2F0" d="M388.2,214.1l3,1.7v3.5l-3,1.7l-3-1.7v-3.5L388.2,214.1z"/>
<path fill="#A6BDDB" d="M585.6,32.7l4.2,2.4V40l-4.2,2.4l-4.2-2.4v-4.9L585.6,32.7z"/>
<path fill="#FFF7FB" d="M357,251.1l2.1,1.2v2.4L357,256l-2.1-1.2v-2.4L357,251.1z"/>
<path fill="#ECE2F0" d="M590.8,133.1l3,1.7v3.5l-3,1.7l-3-1.7v-3.5L590.8,133.1z"/>
<path fill="#FFF7FB" d="M580.4,116.1l2.1,1.2v2.4l-2.1,1.2l-2.1-1.2v-2.4L580.4,116.1z"/>
<path fill="#67A9CF" d="M684.3,95.1l4.7,2.7v5.5l-4.7,2.7l-4.7-2.7v-5.5L684.3,95.1z"/>
<path fill="#FFF7FB" d="M383,152.1l2.1,1.2v2.4L383,157l-2.1-1.2v-2.4L383,152.1z"/>
<path fill="#D0D1E6" d="M450.5,159.3l3.7,2.1v4.2l-3.7,2.1l-3.7-2.1v-4.2L450.5,159.3z"/>
<path fill="#ECE2F0" d="M336.2,196.1l3,1.7v3.5l-3,1.7l-3-1.7v-3.5L336.2,196.1z"/>
<path fill="#FFF7FB" d="M383,80.1l2.1,1.2v2.4L383,85l-2.1-1.2v-2.4L383,80.1z"/>
<path fill="#FFF7FB" d="M492.1,197.1l2.1,1.2v2.4l-2.1,1.2l-2.1-1.2v-2.4L492.1,197.1z"/>
<path fill="#67A9CF" d="M414.1,77.1l4.7,2.7v5.5l-4.7,2.7l-4.7-2.7v-5.5L414.1,77.1z"/>
<path fill="#D0D1E6" d="M388.2,87.3l3.7,2.1v4.2l-3.7,2.1l-3.7-2.1v-4.2L388.2,87.3z"/>
<path fill="#FFF7FB" d="M596,215.1l2.1,1.2v2.4L596,220l-2.1-1.2v-2.4L596,215.1z"/>
<path fill="#D0D1E6" d="M450.5,231.3l3.7,2.1v4.2l-3.7,2.1l-3.7-2.1v-4.2L450.5,231.3z"/>
<path fill="#A6BDDB" d="M383,167.7l4.2,2.4v4.9l-4.2,2.4l-4.2-2.4v-4.9L383,167.7z"/>
<path fill="#A6BDDB" d="M642.8,131.7l4.2,2.4v4.9l-4.2,2.4l-4.2-2.4v-4.9L642.8,131.7z"/>
<path fill="#FFF7FB" d="M528.5,44.1l2.1,1.2v2.4l-2.1,1.2l-2.1-1.2v-2.4L528.5,44.1z"/>
<path fill="#ECE2F0" d="M471.3,214.1l3,1.7v3.5l-3,1.7l-3-1.7v-3.5L471.3,214.1z"/>
<path fill="#FFF7FB" d="M476.5-135.9l2.1,1.2v2.4l-2.1,1.2l-2.1-1.2v-2.4L476.5-135.9z"/>
<path fill="#D0D1E6" d="M383,240.3l3.7,2.1v4.2l-3.7,2.1l-3.7-2.1v-4.2L383,240.3z"/>
<path fill="#FFF7FB" d="M674,224.1l2.1,1.2v2.4L674,229l-2.1-1.2v-2.4L674,224.1z"/>
<path fill="#FFF7FB" d="M585.6,251.1l2.1,1.2v2.4l-2.1,1.2l-2.1-1.2v-2.4L585.6,251.1z"/>
<path fill="#ECE2F0" d="M409,214.1l3,1.7v3.5l-3,1.7l-3-1.7v-3.5L409,214.1z"/>
<path fill="#D0D1E6" d="M398.6,141.3l3.7,2.1v4.2l-3.7,2.1l-3.7-2.1v-4.2L398.6,141.3z"/>
<path fill="#FFF7FB" d="M497.3,116.1l2.1,1.2v2.4l-2.1,1.2l-2.1-1.2v-2.4L497.3,116.1z"/>
<path fill="#ECE2F0" d="M460.9,178.1l3,1.7v3.5l-3,1.7l-3-1.7v-3.5L460.9,178.1z"/>
<path fill="#ECE2F0" d="M533.7,196.1l3,1.7v3.5l-3,1.7l-3-1.7v-3.5L533.7,196.1z"/>
<path fill="#FFF7FB" d="M611.6,206.1l2.1,1.2v2.4l-2.1,1.2l-2.1-1.2v-2.4L611.6,206.1z"/>
<path fill="#FFF7FB" d="M731.1,197.1l2.1,1.2v2.4l-2.1,1.2l-2.1-1.2v-2.4L731.1,197.1z"/>
<path fill="#D0D1E6" d="M409,249.3l3.7,2.1v4.2l-3.7,2.1l-3.7-2.1v-4.2L409,249.3z"/>
<path fill="#D0D1E6" d="M585.6,87.3l3.7,2.1v4.2l-3.7,2.1l-3.7-2.1v-4.2L585.6,87.3z"/>
<path fill="#FFF7FB" d="M538.9,260.1l2.1,1.2v2.4l-2.1,1.2l-2.1-1.2v-2.4L538.9,260.1z"/>
<path fill="#FFF7FB" d="M388.2-90.9l2.1,1.2v2.4l-2.1,1.2l-2.1-1.2v-2.4L388.2-90.9z"/>
<path fill="#FFF7FB" d="M512.9,35.1l2.1,1.2v2.4l-2.1,1.2l-2.1-1.2v-2.4L512.9,35.1z"/>
<path fill="#FFF7FB" d="M528.5,260.1l2.1,1.2v2.4l-2.1,1.2l-2.1-1.2v-2.4L528.5,260.1z"/>
<path fill="#D0D1E6" d="M507.7,42.3l3.7,2.1v4.2l-3.7,2.1l-3.7-2.1v-4.2L507.7,42.3z"/>
<path fill="#FFF7FB" d="M486.9,242.1l2.1,1.2v2.4l-2.1,1.2l-2.1-1.2v-2.4L486.9,242.1z"/>
<path fill="#D0D1E6" d="M523.3,249.3l3.7,2.1v4.2l-3.7,2.1l-3.7-2.1v-4.2L523.3,249.3z"/>
<path fill="#FFF7FB" d="M434.9,152.1l2.1,1.2v2.4l-2.1,1.2l-2.1-1.2v-2.4L434.9,152.1z"/>
<path fill="#ECE2F0" d="M596,232.1l3,1.7v3.5l-3,1.7l-3-1.7v-3.5L596,232.1z"/>
<path fill="#FFF7FB" d="M570-63.9l2.1,1.2v2.4L570-59l-2.1-1.2v-2.4L570-63.9z"/>
<path fill="#FFF7FB" d="M455.7,98.1l2.1,1.2v2.4l-2.1,1.2l-2.1-1.2v-2.4L455.7,98.1z"/>
<path fill="#ECE2F0" d="M544.1,178.1l3,1.7v3.5l-3,1.7l-3-1.7v-3.5L544.1,178.1z"/>
<path fill="#D0D1E6" d="M606.4,213.3l3.7,2.1v4.2l-3.7,2.1l-3.7-2.1v-4.2L606.4,213.3z"/>
<path fill="#67A9CF" d="M559.6,221.1l4.7,2.7v5.5l-4.7,2.7l-4.7-2.7v-5.5L559.6,221.1z"/>
<path fill="#ECE2F0" d="M409,232.1l3,1.7v3.5l-3,1.7l-3-1.7v-3.5L409,232.1z"/>
<path fill="#D0D1E6" d="M674,240.3l3.7,2.1v4.2l-3.7,2.1l-3.7-2.1v-4.2L674,240.3z"/>
<path fill="#FFF7FB" d="M424.5,188.1l2.1,1.2v2.4l-2.1,1.2l-2.1-1.2v-2.4L424.5,188.1z"/>
<path fill="#ECE2F0" d="M616.8,106.1l3,1.7v3.5l-3,1.7l-3-1.7v-3.5L616.8,106.1z"/>
<path fill="#FFF7FB" d="M429.7,233.1l2.1,1.2v2.4l-2.1,1.2l-2.1-1.2v-2.4L429.7,233.1z"/>
<path fill="#FFF7FB" d="M570,242.1l2.1,1.2v2.4L570,247l-2.1-1.2v-2.4L570,242.1z"/>
<path fill="#FFF7FB" d="M668.8,161.1l2.1,1.2v2.4l-2.1,1.2l-2.1-1.2v-2.4L668.8,161.1z"/>
<path fill="#FFF7FB" d="M725.9,116.1l2.1,1.2v2.4l-2.1,1.2l-2.1-1.2v-2.4L725.9,116.1z"/>
<path fill="#FFF7FB" d="M710.3,233.1l2.1,1.2v2.4l-2.1,1.2l-2.1-1.2v-2.4L710.3,233.1z"/>
<path fill="#ECE2F0" d="M502.5,88.1l3,1.7v3.5l-3,1.7l-3-1.7v-3.5L502.5,88.1z"/>
<path fill="#FFF7FB" d="M715.5,98.1l2.1,1.2v2.4l-2.1,1.2l-2.1-1.2v-2.4L715.5,98.1z"/>
<path fill="#FFF7FB" d="M434.9,224.1l2.1,1.2v2.4l-2.1,1.2l-2.1-1.2v-2.4L434.9,224.1z"/>
<path fill="#ECE2F0" d="M460.9,160.1l3,1.7v3.5l-3,1.7l-3-1.7v-3.5L460.9,160.1z"/>
<path fill="#ECE2F0" d="M653.2,187.1l3,1.7v3.5l-3,1.7l-3-1.7v-3.5L653.2,187.1z"/>
<path fill="#ECE2F0" d="M460.9,232.1l3,1.7v3.5l-3,1.7l-3-1.7v-3.5L460.9,232.1z"/>
<path fill="#ECE2F0" d="M637.6,124.1l3,1.7v3.5l-3,1.7l-3-1.7v-3.5L637.6,124.1z"/>
<path fill="#D0D1E6" d="M471.3,231.3l3.7,2.1v4.2l-3.7,2.1l-3.7-2.1v-4.2L471.3,231.3z"/>
<path fill="#FFF7FB" d="M564.8,143.1l2.1,1.2v2.4l-2.1,1.2l-2.1-1.2v-2.4L564.8,143.1z"/>
<path fill="#ECE2F0" d="M471.3,34.1l3,1.7v3.5l-3,1.7l-3-1.7v-3.5L471.3,34.1z"/>
<path fill="#FFF7FB" d="M725.9,206.1l2.1,1.2v2.4l-2.1,1.2l-2.1-1.2v-2.4L725.9,206.1z"/>
<path fill="#ECE2F0" d="M466.1,241.1l3,1.7v3.5l-3,1.7l-3-1.7v-3.5L466.1,241.1z"/>
<path fill="#ECE2F0" d="M679.2,196.1l3,1.7v3.5l-3,1.7l-3-1.7v-3.5L679.2,196.1z"/>
<path fill="#FFF7FB" d="M564.8,179.1l2.1,1.2v2.4l-2.1,1.2l-2.1-1.2v-2.4L564.8,179.1z"/>
<path fill="#A6BDDB" d="M455.7,113.7l4.2,2.4v4.9l-4.2,2.4l-4.2-2.4v-4.9L455.7,113.7z"/>
<path fill="#ECE2F0" d="M440.1,124.1l3,1.7v3.5l-3,1.7l-3-1.7v-3.5L440.1,124.1z"/>
<path fill="#FFF7FB" d="M549.2,152.1l2.1,1.2v2.4l-2.1,1.2l-2.1-1.2v-2.4L549.2,152.1z"/>
<path fill="#ECE2F0" d="M492.1,178.1l3,1.7v3.5l-3,1.7l-3-1.7v-3.5L492.1,178.1z"/>
<path fill="#ECE2F0" d="M616.8,124.1l3,1.7v3.5l-3,1.7l-3-1.7v-3.5L616.8,124.1z"/>
<path fill="#014636" d="M679.2,85.6l5.2,3v6l-5.2,3l-5.2-3v-6L679.2,85.6z"/>
<path fill="#ECE2F0" d="M367.4,124.1l3,1.7v3.5l-3,1.7l-3-1.7v-3.5L367.4,124.1z"/>
<path fill="#FFF7FB" d="M689.5,143.1l2.1,1.2v2.4l-2.1,1.2l-2.1-1.2v-2.4L689.5,143.1z"/>
<path fill="#FFF7FB" d="M611.6,242.1l2.1,1.2v2.4l-2.1,1.2l-2.1-1.2v-2.4L611.6,242.1z"/>
<path fill="#ECE2F0" d="M471.3,124.1l3,1.7v3.5l-3,1.7l-3-1.7v-3.5L471.3,124.1z"/>
<path fill="#ECE2F0" d="M528.5,97.1l3,1.7v3.5l-3,1.7l-3-1.7v-3.5L528.5,97.1z"/>
<path fill="#A6BDDB" d="M689.5,104.7l4.2,2.4v4.9l-4.2,2.4l-4.2-2.4v-4.9L689.5,104.7z"/>
<path fill="#ECE2F0" d="M596,88.1l3,1.7v3.5l-3,1.7l-3-1.7v-3.5L596,88.1z"/>
<path fill="#ECE2F0" d="M564.8,214.1l3,1.7v3.5l-3,1.7l-3-1.7v-3.5L564.8,214.1z"/>
<path fill="#FFF7FB" d="M611.6-99.9l2.1,1.2v2.4l-2.1,1.2l-2.1-1.2v-2.4L611.6-99.9z"/>
<path fill="#ECE2F0" d="M679.2,70.1l3,1.7v3.5l-3,1.7l-3-1.7v-3.5L679.2,70.1z"/>
<path fill="#ECE2F0" d="M497.3,223.1l3,1.7v3.5l-3,1.7l-3-1.7v-3.5L497.3,223.1z"/>
<path fill="#ECE2F0" d="M549.2,25.1l3,1.7v3.5l-3,1.7l-3-1.7v-3.5L549.2,25.1z"/>
<path fill="#FFF7FB" d="M336.2,251.1l2.1,1.2v2.4l-2.1,1.2l-2.1-1.2v-2.4L336.2,251.1z"/>
<path fill="#FFF7FB" d="M528.5,26.1l2.1,1.2v2.4l-2.1,1.2l-2.1-1.2v-2.4L528.5,26.1z"/>
<path fill="#ECE2F0" d="M658.4,196.1l3,1.7v3.5l-3,1.7l-3-1.7v-3.5L658.4,196.1z"/>
<path fill="#016C59" d="M658.4,67.6l5.2,3v6l-5.2,3l-5.2-3v-6L658.4,67.6z"/>
<path fill="#ECE2F0" d="M460.9,124.1l3,1.7v3.5l-3,1.7l-3-1.7v-3.5L460.9,124.1z"/>
<path fill="#ECE2F0" d="M398.6,232.1l3,1.7v3.5l-3,1.7l-3-1.7v-3.5L398.6,232.1z"/>
<path fill="#FFF7FB" d="M554.4,161.1l2.1,1.2v2.4l-2.1,1.2l-2.1-1.2v-2.4L554.4,161.1z"/>
<path fill="#FFF7FB" d="M564.8,17.1l2.1,1.2v2.4l-2.1,1.2l-2.1-1.2v-2.4L564.8,17.1z"/>
<path fill="#ECE2F0" d="M653.2,241.1l3,1.7v3.5l-3,1.7l-3-1.7v-3.5L653.2,241.1z"/>
<path fill="#FFF7FB" d="M648,251.1l2.1,1.2v2.4L648,256l-2.1-1.2v-2.4L648,251.1z"/>
<path fill="#FFF7FB" d="M445.3,260.1l2.1,1.2v2.4l-2.1,1.2l-2.1-1.2v-2.4L445.3,260.1z"/>
<path fill="#FFF7FB" d="M689.5,233.1l2.1,1.2v2.4l-2.1,1.2l-2.1-1.2v-2.4L689.5,233.1z"/>
<path fill="#FFF7FB" d="M679.2-54.9l2.1,1.2v2.4l-2.1,1.2l-2.1-1.2v-2.4L679.2-54.9z"/>
<path fill="#FFF7FB" d="M455.7,242.1l2.1,1.2v2.4l-2.1,1.2l-2.1-1.2v-2.4L455.7,242.1z"/>
<path fill="#FFF7FB" d="M580.4,134.1l2.1,1.2v2.4l-2.1,1.2l-2.1-1.2v-2.4L580.4,134.1z"/>
<path fill="#FFF7FB" d="M611.6,80.1l2.1,1.2v2.4l-2.1,1.2l-2.1-1.2v-2.4L611.6,80.1z"/>
<path fill="#ECE2F0" d="M434.9,241.1l3,1.7v3.5l-3,1.7l-3-1.7v-3.5L434.9,241.1z"/>
<path fill="#ECE2F0" d="M632.4,151.1l3,1.7v3.5l-3,1.7l-3-1.7v-3.5L632.4,151.1z"/>
<path fill="#D0D1E6" d="M429.7,141.3l3.7,2.1v4.2l-3.7,2.1l-3.7-2.1v-4.2L429.7,141.3z"/>
<path fill="#ECE2F0" d="M393.4,79.1l3,1.7v3.5l-3,1.7l-3-1.7v-3.5L393.4,79.1z"/>
<path fill="#3690C0" d="M419.3,67.6l5.2,3v6l-5.2,3l-5.2-3v-6L419.3,67.6z"/>
<path fill="#FFF7FB" d="M424.5,242.1l2.1,1.2v2.4l-2.1,1.2l-2.1-1.2v-2.4L424.5,242.1z"/>
<path fill="#ECE2F0" d="M575.2,250.1l3,1.7v3.5l-3,1.7l-3-1.7v-3.5L575.2,250.1z"/>
<path fill="#ECE2F0" d="M699.9,232.1l3,1.7v3.5l-3,1.7l-3-1.7v-3.5L699.9,232.1z"/>
<path fill="#67A9CF" d="M502.5,176.1l4.7,2.7v5.5l-4.7,2.7l-4.7-2.7v-5.5L502.5,176.1z"/>
<path fill="#FFF7FB" d="M357-54.9l2.1,1.2v2.4L357-50l-2.1-1.2v-2.4L357-54.9z"/>
<path fill="#FFF7FB" d="M492.1,233.1l2.1,1.2v2.4l-2.1,1.2l-2.1-1.2v-2.4L492.1,233.1z"/>
<path fill="#FFF7FB" d="M388.2,179.1l2.1,1.2v2.4l-2.1,1.2l-2.1-1.2v-2.4L388.2,179.1z"/>
<path fill="#FFF7FB" d="M559.6,98.1l2.1,1.2v2.4l-2.1,1.2l-2.1-1.2v-2.4L559.6,98.1z"/>
<path fill="#FFF7FB" d="M570,80.1l2.1,1.2v2.4L570,85l-2.1-1.2v-2.4L570,80.1z"/>
<path fill="#A6BDDB" d="M570,221.7l4.2,2.4v4.9l-4.2,2.4l-4.2-2.4v-4.9L570,221.7z"/>
<path fill="#ECE2F0" d="M596,34.1l3,1.7v3.5l-3,1.7l-3-1.7v-3.5L596,34.1z"/>
<path fill="#FFF7FB" d="M518.1,44.1l2.1,1.2v2.4l-2.1,1.2l-2.1-1.2v-2.4L518.1,44.1z"/>
<path fill="#FFF7FB" d="M471.3-288.9l2.1,1.2v2.4l-2.1,1.2l-2.1-1.2v-2.4L471.3-288.9z"/>
<path fill="#FFF7FB" d="M445.3,188.1l2.1,1.2v2.4l-2.1,1.2l-2.1-1.2v-2.4L445.3,188.1z"/>
<path fill="#FFF7FB" d="M590.8,224.1l2.1,1.2v2.4l-2.1,1.2l-2.1-1.2v-2.4L590.8,224.1z"/>
<path fill="#FFF7FB" d="M648,89.1l2.1,1.2v2.4L648,94l-2.1-1.2v-2.4L648,89.1z"/>
<path fill="#FFF7FB" d="M481.7,35.1l2.1,1.2v2.4l-2.1,1.2l-2.1-1.2v-2.4L481.7,35.1z"/>
<path fill="#ECE2F0" d="M611.6,97.1l3,1.7v3.5l-3,1.7l-3-1.7v-3.5L611.6,97.1z"/>
<path fill="#FFF7FB" d="M497.3,80.1l2.1,1.2v2.4l-2.1,1.2l-2.1-1.2v-2.4L497.3,80.1z"/>
<path fill="#ECE2F0" d="M611.6,43.1l3,1.7v3.5l-3,1.7l-3-1.7v-3.5L611.6,43.1z"/>
<path fill="#D0D1E6" d="M518.1,78.3l3.7,2.1v4.2l-3.7,2.1l-3.7-2.1v-4.2L518.1,78.3z"/>
<path fill="#FFF7FB" d="M409,161.1l2.1,1.2v2.4L409,166l-2.1-1.2v-2.4L409,161.1z"/>
<path fill="#D0D1E6" d="M663.6,60.3l3.7,2.1v4.2l-3.7,2.1l-3.7-2.1v-4.2L663.6,60.3z"/>
<path fill="#D0D1E6" d="M429.7,51.3l3.7,2.1v4.2l-3.7,2.1l-3.7-2.1v-4.2L429.7,51.3z"/>
<path fill="#FFF7FB" d="M450.5,179.1l2.1,1.2v2.4l-2.1,1.2l-2.1-1.2v-2.4L450.5,179.1z"/>
<path fill="#FFF7FB" d="M637.6,89.1l2.1,1.2v2.4l-2.1,1.2l-2.1-1.2v-2.4L637.6,89.1z"/>
<path fill="#ECE2F0" d="M575.2,106.1l3,1.7v3.5l-3,1.7l-3-1.7v-3.5L575.2,106.1z"/>
<path fill="#ECE2F0" d="M419.3,250.1l3,1.7v3.5l-3,1.7l-3-1.7v-3.5L419.3,250.1z"/>
<path fill="#FFF7FB" d="M440.1,179.1l2.1,1.2v2.4l-2.1,1.2l-2.1-1.2v-2.4L440.1,179.1z"/>
<path fill="#FFF7FB" d="M502.5,161.1l2.1,1.2v2.4l-2.1,1.2l-2.1-1.2v-2.4L502.5,161.1z"/>
<path fill="#ECE2F0" d="M377.8,106.1l3,1.7v3.5l-3,1.7l-3-1.7v-3.5L377.8,106.1z"/>
<path fill="#FFF7FB" d="M393.4,98.1l2.1,1.2v2.4l-2.1,1.2l-2.1-1.2v-2.4L393.4,98.1z"/>
<path fill="#FFF7FB" d="M398.6,251.1l2.1,1.2v2.4l-2.1,1.2l-2.1-1.2v-2.4L398.6,251.1z"/>
<path fill="#ECE2F0" d="M585.6,160.1l3,1.7v3.5l-3,1.7l-3-1.7v-3.5L585.6,160.1z"/>
<path fill="#ECE2F0" d="M627.2,124.1l3,1.7v3.5l-3,1.7l-3-1.7v-3.5L627.2,124.1z"/>
<path fill="#FFF7FB" d="M653.2,170.1l2.1,1.2v2.4l-2.1,1.2l-2.1-1.2v-2.4L653.2,170.1z"/>
<path fill="#FFF7FB" d="M409,143.1l2.1,1.2v2.4L409,148l-2.1-1.2v-2.4L409,143.1z"/>
<path fill="#ECE2F0" d="M403.8,187.1l3,1.7v3.5l-3,1.7l-3-1.7v-3.5L403.8,187.1z"/>
<path fill="#FFF7FB" d="M642.8,98.1l2.1,1.2v2.4l-2.1,1.2l-2.1-1.2v-2.4L642.8,98.1z"/>
<path fill="#FFF7FB" d="M445.3,134.1l2.1,1.2v2.4l-2.1,1.2l-2.1-1.2v-2.4L445.3,134.1z"/>
<path fill="#FFF7FB" d="M570,44.1l2.1,1.2v2.4L570,49l-2.1-1.2v-2.4L570,44.1z"/>
<path fill="#D0D1E6" d="M606.4,87.3l3.7,2.1v4.2l-3.7,2.1l-3.7-2.1v-4.2L606.4,87.3z"/>
<path fill="#3690C0" d="M429.7,121.6l5.2,3v6l-5.2,3l-5.2-3v-6L429.7,121.6z"/>
<path fill="#FFF7FB" d="M357,143.1l2.1,1.2v2.4L357,148l-2.1-1.2v-2.4L357,143.1z"/>
<path fill="#ECE2F0" d="M409,88.1l3,1.7v3.5l-3,1.7l-3-1.7v-3.5L409,88.1z"/>
<path fill="#FFF7FB" d="M564.8,125.1l2.1,1.2v2.4l-2.1,1.2l-2.1-1.2v-2.4L564.8,125.1z"/>
<path fill="#ECE2F0" d="M434.9,61.1l3,1.7v3.5l-3,1.7l-3-1.7v-3.5L434.9,61.1z"/>
<path fill="#D0D1E6" d="M658.4,141.3l3.7,2.1v4.2l-3.7,2.1l-3.7-2.1v-4.2L658.4,141.3z"/>
<path fill="#FFF7FB" d="M554.4,125.1l2.1,1.2v2.4l-2.1,1.2l-2.1-1.2v-2.4L554.4,125.1z"/>
<path fill="#FFF7FB" d="M653.2,224.1l2.1,1.2v2.4l-2.1,1.2l-2.1-1.2v-2.4L653.2,224.1z"/>
<path fill="#ECE2F0" d="M538.9,43.1l3,1.7v3.5l-3,1.7l-3-1.7v-3.5L538.9,43.1z"/>
<path fill="#FFF7FB" d="M357,125.1l2.1,1.2v2.4L357,130l-2.1-1.2v-2.4L357,125.1z"/>
<path fill="#ECE2F0" d="M466.1,97.1l3,1.7v3.5l-3,1.7l-3-1.7v-3.5L466.1,97.1z"/>
<path fill="#FFF7FB" d="M658.4,161.1l2.1,1.2v2.4l-2.1,1.2l-2.1-1.2v-2.4L658.4,161.1z"/>
<path fill="#FFF7FB" d="M533.7,107.1l2.1,1.2v2.4l-2.1,1.2l-2.1-1.2v-2.4L533.7,107.1z"/>
<path fill="#FFF7FB" d="M648,161.1l2.1,1.2v2.4L648,166l-2.1-1.2v-2.4L648,161.1z"/>
<path fill="#ECE2F0" d="M689.5,88.1l3,1.7v3.5l-3,1.7l-3-1.7v-3.5L689.5,88.1z"/>
<path fill="#D0D1E6" d="M492.1,213.3l3.7,2.1v4.2l-3.7,2.1l-3.7-2.1v-4.2L492.1,213.3z"/>
<path fill="#ECE2F0" d="M476.5,79.1l3,1.7v3.5l-3,1.7l-3-1.7v-3.5L476.5,79.1z"/>
<path fill="#FFF7FB" d="M398.6,71.1l2.1,1.2v2.4l-2.1,1.2l-2.1-1.2v-2.4L398.6,71.1z"/>
<path fill="#ECE2F0" d="M653.2,61.1l3,1.7v3.5l-3,1.7l-3-1.7v-3.5L653.2,61.1z"/>
<path fill="#ECE2F0" d="M538.9,25.1l3,1.7v3.5l-3,1.7l-3-1.7v-3.5L538.9,25.1z"/>
<path fill="#FFF7FB" d="M689.5,17.1l2.1,1.2v2.4l-2.1,1.2l-2.1-1.2v-2.4L689.5,17.1z"/>
<path fill="#ECE2F0" d="M409,178.1l3,1.7v3.5l-3,1.7l-3-1.7v-3.5L409,178.1z"/>
<path fill="#ECE2F0" d="M648,52.1l3,1.7v3.5l-3,1.7l-3-1.7v-3.5L648,52.1z"/>
<path fill="#FFF7FB" d="M720.7,125.1l2.1,1.2v2.4l-2.1,1.2l-2.1-1.2v-2.4L720.7,125.1z"/>
<path fill="#A6BDDB" d="M632.4,41.7l4.2,2.4V49l-4.2,2.4l-4.2-2.4v-4.9L632.4,41.7z"/>
<path fill="#FFF7FB" d="M507.7,98.1l2.1,1.2v2.4l-2.1,1.2l-2.1-1.2v-2.4L507.7,98.1z"/>
<path fill="#FFF7FB" d="M471.3,143.1l2.1,1.2v2.4l-2.1,1.2l-2.1-1.2v-2.4L471.3,143.1z"/>
<path fill="#FFF7FB" d="M497.3,44.1l2.1,1.2v2.4l-2.1,1.2l-2.1-1.2v-2.4L497.3,44.1z"/>
<path fill="#FFF7FB" d="M471.3-18.9l2.1,1.2v2.4l-2.1,1.2l-2.1-1.2v-2.4L471.3-18.9z"/>
<path fill="#ECE2F0" d="M710.3,88.1l3,1.7v3.5l-3,1.7l-3-1.7v-3.5L710.3,88.1z"/>
<path fill="#D0D1E6" d="M414.1,114.3l3.7,2.1v4.2l-3.7,2.1l-3.7-2.1v-4.2L414.1,114.3z"/>
<path fill="#FFF7FB" d="M549.2,80.1l2.1,1.2v2.4l-2.1,1.2l-2.1-1.2v-2.4L549.2,80.1z"/>
<path fill="#ECE2F0" d="M658.4,232.1l3,1.7v3.5l-3,1.7l-3-1.7v-3.5L658.4,232.1z"/>
<path fill="#FFF7FB" d="M689.5-234.9l2.1,1.2v2.4l-2.1,1.2l-2.1-1.2v-2.4L689.5-234.9z"/>
<path fill="#FFF7FB" d="M570,116.1l2.1,1.2v2.4L570,121l-2.1-1.2v-2.4L570,116.1z"/>
<path fill="#ECE2F0" d="M372.6,241.1l3,1.7v3.5l-3,1.7l-3-1.7v-3.5L372.6,241.1z"/>
<path fill="#FFF7FB" d="M575.2,71.1l2.1,1.2v2.4l-2.1,1.2l-2.1-1.2v-2.4L575.2,71.1z"/>
<path fill="#FFF7FB" d="M502.5,143.1l2.1,1.2v2.4l-2.1,1.2l-2.1-1.2v-2.4L502.5,143.1z"/>
<path fill="#ECE2F0" d="M471.3,88.1l3,1.7v3.5l-3,1.7l-3-1.7v-3.5L471.3,88.1z"/>
<path fill="#D0D1E6" d="M460.9,51.3l3.7,2.1v4.2l-3.7,2.1l-3.7-2.1v-4.2L460.9,51.3z"/>
<path fill="#ECE2F0" d="M492.1,34.1l3,1.7v3.5l-3,1.7l-3-1.7v-3.5L492.1,34.1z"/>
<path fill="#FFF7FB" d="M377.8,233.1l2.1,1.2v2.4l-2.1,1.2l-2.1-1.2v-2.4L377.8,233.1z"/>
<path fill="#ECE2F0" d="M590.8,79.1l3,1.7v3.5l-3,1.7l-3-1.7v-3.5L590.8,79.1z"/>
<path fill="#FFF7FB" d="M731.1,161.1l2.1,1.2v2.4l-2.1,1.2l-2.1-1.2v-2.4L731.1,161.1z"/>
<path fill="#FFF7FB" d="M393.4,116.1l2.1,1.2v2.4l-2.1,1.2l-2.1-1.2v-2.4L393.4,116.1z"/>
<path fill="#ECE2F0" d="M580.4,241.1l3,1.7v3.5l-3,1.7l-3-1.7v-3.5L580.4,241.1z"/>
<path fill="#FFF7FB" d="M518.1,152.1l2.1,1.2v2.4l-2.1,1.2l-2.1-1.2v-2.4L518.1,152.1z"/>
<path fill="#FFF7FB" d="M736.3,224.1l2.1,1.2v2.4l-2.1,1.2l-2.1-1.2v-2.4L736.3,224.1z"/>
<path fill="#ECE2F0" d="M445.3,241.1l3,1.7v3.5l-3,1.7l-3-1.7v-3.5L445.3,241.1z"/>
<path fill="#FFF7FB" d="M523.3,71.1l2.1,1.2v2.4l-2.1,1.2l-2.1-1.2v-2.4L523.3,71.1z"/>
<path fill="#ECE2F0" d="M471.3,52.1l3,1.7v3.5l-3,1.7l-3-1.7v-3.5L471.3,52.1z"/>
<path fill="#FFF7FB" d="M705.1,242.1l2.1,1.2v2.4l-2.1,1.2l-2.1-1.2v-2.4L705.1,242.1z"/>
<path fill="#FFF7FB" d="M679.2,53.1l2.1,1.2v2.4l-2.1,1.2l-2.1-1.2v-2.4L679.2,53.1z"/>
<path fill="#FFF7FB" d="M388.2,71.1l2.1,1.2v2.4l-2.1,1.2l-2.1-1.2v-2.4L388.2,71.1z"/>
<path fill="#FFF7FB" d="M648,125.1l2.1,1.2v2.4L648,130l-2.1-1.2v-2.4L648,125.1z"/>
<path fill="#FFF7FB" d="M502.5,107.1l2.1,1.2v2.4l-2.1,1.2l-2.1-1.2v-2.4L502.5,107.1z"/>
<path fill="#FFF7FB" d="M455.7,134.1l2.1,1.2v2.4l-2.1,1.2l-2.1-1.2v-2.4L455.7,134.1z"/>
<path fill="#FFF7FB" d="M538.9,116.1l2.1,1.2v2.4l-2.1,1.2l-2.1-1.2v-2.4L538.9,116.1z"/>
<path fill="#ECE2F0" d="M523.3,142.1l3,1.7v3.5l-3,1.7l-3-1.7v-3.5L523.3,142.1z"/>
<path fill="#ECE2F0" d="M460.9,142.1l3,1.7v3.5l-3,1.7l-3-1.7v-3.5L460.9,142.1z"/>
<path fill="#FFF7FB" d="M502.5,71.1l2.1,1.2v2.4l-2.1,1.2l-2.1-1.2v-2.4L502.5,71.1z"/>
<path fill="#FFF7FB" d="M512.9,161.1l2.1,1.2v2.4l-2.1,1.2l-2.1-1.2v-2.4L512.9,161.1z"/>
<path fill="#FFF7FB" d="M731.1,233.1l2.1,1.2v2.4l-2.1,1.2l-2.1-1.2v-2.4L731.1,233.1z"/>
<path fill="#FFF7FB" d="M616.8-342.9l2.1,1.2v2.4l-2.1,1.2l-2.1-1.2v-2.4L616.8-342.9z"/>
<path fill="#ECE2F0" d="M429.7,70.1l3,1.7v3.5l-3,1.7l-3-1.7v-3.5L429.7,70.1z"/>
<path fill="#FFF7FB" d="M398.6,161.1l2.1,1.2v2.4l-2.1,1.2l-2.1-1.2v-2.4L398.6,161.1z"/>
<path fill="#FFF7FB" d="M637.6,71.1l2.1,1.2v2.4l-2.1,1.2l-2.1-1.2v-2.4L637.6,71.1z"/>
<path fill="#D0D1E6" d="M476.5,222.3l3.7,2.1v4.2l-3.7,2.1l-3.7-2.1v-4.2L476.5,222.3z"/>
<path fill="#FFF7FB" d="M632.4,242.1l2.1,1.2v2.4l-2.1,1.2l-2.1-1.2v-2.4L632.4,242.1z"/>
<path fill="#FFF7FB" d="M653.2,152.1l2.1,1.2v2.4l-2.1,1.2l-2.1-1.2v-2.4L653.2,152.1z"/>
<path fill="#FFF7FB" d="M455.7,80.1l2.1,1.2v2.4l-2.1,1.2l-2.1-1.2v-2.4L455.7,80.1z"/>
<path fill="#FFF7FB" d="M377.8,143.1l2.1,1.2v2.4l-2.1,1.2l-2.1-1.2v-2.4L377.8,143.1z"/>
<path fill="#FFF7FB" d="M611.6,260.1l2.1,1.2v2.4l-2.1,1.2l-2.1-1.2v-2.4L611.6,260.1z"/>
<path fill="#FFF7FB" d="M341.4,206.1l2.1,1.2v2.4l-2.1,1.2l-2.1-1.2v-2.4L341.4,206.1z"/>
<path fill="#FFF7FB" d="M476.5,134.1l2.1,1.2v2.4l-2.1,1.2l-2.1-1.2v-2.4L476.5,134.1z"/>
<path fill="#FFF7FB" d="M611.6,152.1l2.1,1.2v2.4l-2.1,1.2l-2.1-1.2v-2.4L611.6,152.1z"/>
<path fill="#FFF7FB" d="M658.4,53.1l2.1,1.2v2.4l-2.1,1.2l-2.1-1.2v-2.4L658.4,53.1z"/>
<path fill="#FFF7FB" d="M668.8,215.1l2.1,1.2v2.4l-2.1,1.2l-2.1-1.2v-2.4L668.8,215.1z"/>
<path fill="#FFF7FB" d="M622,242.1l2.1,1.2v2.4L622,247l-2.1-1.2v-2.4L622,242.1z"/>
<path fill="#FFF7FB" d="M632.4,134.1l2.1,1.2v2.4l-2.1,1.2l-2.1-1.2v-2.4L632.4,134.1z"/>
<path fill="#FFF7FB" d="M642.8,44.1l2.1,1.2v2.4l-2.1,1.2l-2.1-1.2v-2.4L642.8,44.1z"/>
<path fill="#FFF7FB" d="M445.3,170.1l2.1,1.2v2.4l-2.1,1.2l-2.1-1.2v-2.4L445.3,170.1z"/>
<path fill="#FFF7FB" d="M705.1,134.1l2.1,1.2v2.4l-2.1,1.2l-2.1-1.2v-2.4L705.1,134.1z"/>
<path fill="#FFF7FB" d="M409,125.1l2.1,1.2v2.4L409,130l-2.1-1.2v-2.4L409,125.1z"/>
<path fill="#ECE2F0" d="M715.5,115.1l3,1.7v3.5l-3,1.7l-3-1.7v-3.5L715.5,115.1z"/>
<path fill="#FFF7FB" d="M403.8,152.1l2.1,1.2v2.4l-2.1,1.2l-2.1-1.2v-2.4L403.8,152.1z"/>
<path fill="#FFF7FB" d="M694.7,224.1l2.1,1.2v2.4l-2.1,1.2l-2.1-1.2v-2.4L694.7,224.1z"/>
<path fill="#ECE2F0" d="M616.8,52.1l3,1.7v3.5l-3,1.7l-3-1.7v-3.5L616.8,52.1z"/>
<path fill="#FFF7FB" d="M419.3,125.1l2.1,1.2v2.4l-2.1,1.2l-2.1-1.2v-2.4L419.3,125.1z"/>
<path fill="#FFF7FB" d="M663.6,224.1l2.1,1.2v2.4l-2.1,1.2l-2.1-1.2v-2.4L663.6,224.1z"/>
<path fill="#FFF7FB" d="M367.4,89.1l2.1,1.2v2.4l-2.1,1.2l-2.1-1.2v-2.4L367.4,89.1z"/>
<path fill="#FFF7FB" d="M434.9,134.1l2.1,1.2v2.4l-2.1,1.2l-2.1-1.2v-2.4L434.9,134.1z"/>
<path fill="#ECE2F0" d="M674,61.1l3,1.7v3.5l-3,1.7l-3-1.7v-3.5L674,61.1z"/>
<path fill="#ECE2F0" d="M596,178.1l3,1.7v3.5l-3,1.7l-3-1.7v-3.5L596,178.1z"/>
<path fill="#FFF7FB" d="M663.6,242.1l2.1,1.2v2.4l-2.1,1.2l-2.1-1.2v-2.4L663.6,242.1z"/>
<path fill="#FFF7FB" d="M663.6-243.9l2.1,1.2v2.4l-2.1,1.2l-2.1-1.2v-2.4L663.6-243.9z"/>
<path fill="#ECE2F0" d="M642.8,223.1l3,1.7v3.5l-3,1.7l-3-1.7v-3.5L642.8,223.1z"/>
<path fill="#FFF7FB" d="M611.6,224.1l2.1,1.2v2.4l-2.1,1.2l-2.1-1.2v-2.4L611.6,224.1z"/>
<path fill="#ECE2F0" d="M622,43.1l3,1.7v3.5l-3,1.7l-3-1.7v-3.5L622,43.1z"/>
<path fill="#FFF7FB" d="M674,152.1l2.1,1.2v2.4L674,157l-2.1-1.2v-2.4L674,152.1z"/>
<path fill="#FFF7FB" d="M362.2,206.1l2.1,1.2v2.4l-2.1,1.2l-2.1-1.2v-2.4L362.2,206.1z"/>
<path fill="#FFF7FB" d="M705.1,224.1l2.1,1.2v2.4l-2.1,1.2l-2.1-1.2v-2.4L705.1,224.1z"/>
<path fill="#FFF7FB" d="M544.1,89.1l2.1,1.2v2.4l-2.1,1.2l-2.1-1.2v-2.4L544.1,89.1z"/>
<path fill="#FFF7FB" d="M674,134.1l2.1,1.2v2.4L674,139l-2.1-1.2v-2.4L674,134.1z"/>
<path fill="#ECE2F0" d="M403.8,169.1l3,1.7v3.5l-3,1.7l-3-1.7v-3.5L403.8,169.1z"/>
<path fill="#FFF7FB" d="M580.4,98.1l2.1,1.2v2.4l-2.1,1.2l-2.1-1.2v-2.4L580.4,98.1z"/>
<path fill="#FFF7FB" d="M528.5,62.1l2.1,1.2v2.4l-2.1,1.2l-2.1-1.2v-2.4L528.5,62.1z"/>
<path fill="#FFF7FB" d="M616.8,35.1l2.1,1.2v2.4l-2.1,1.2l-2.1-1.2v-2.4L616.8,35.1z"/>
<path fill="#FFF7FB" d="M476.5,44.1l2.1,1.2v2.4l-2.1,1.2l-2.1-1.2v-2.4L476.5,44.1z"/>
<path fill="#FFF7FB" d="M445.3,80.1l2.1,1.2v2.4l-2.1,1.2l-2.1-1.2v-2.4L445.3,80.1z"/>
<path fill="#FFF7FB" d="M351.8,152.1l2.1,1.2v2.4l-2.1,1.2l-2.1-1.2v-2.4L351.8,152.1z"/>
<path fill="#FFF7FB" d="M383-9.9l2.1,1.2v2.4L383-5l-2.1-1.2v-2.4L383-9.9z"/>
<text transform="matrix(1 0 0 1 210.6289 39.81)" fill="#53534F" font-family="'Balto-Book'" font-size="12">1</text>
<text transform="matrix(1 0 0 1 240.6869 39.81)" fill="#53534F" font-family="'Balto-Book'" font-size="12">6+</text>
<g>
	<path fill="none" stroke="#53534F" stroke-miterlimit="10" d="M228.4,18.3l3,1.7v3.5l-3,1.7l-3-1.7V20L228.4,18.3z"/>
	<path fill="none" stroke="#53534F" stroke-miterlimit="10" d="M246.6,15.8l5.2,3v6l-5.2,3l-5.2-3v-6L246.6,15.8z"/>
	<path fill="none" stroke="#53534F" stroke-miterlimit="10" d="M213.2,19.3l2.1,1.2V23l-2.1,1.2l-2.1-1.2v-2.4L213.2,19.3z"/>
</g>
<path fill="#ECE2F0" d="M533.7,142.1l3,1.7v3.5l-3,1.7l-3-1.7v-3.5L533.7,142.1z"/>
<path fill="#FFF7FB" d="M460.9-198.9l2.1,1.2v2.4l-2.1,1.2l-2.1-1.2v-2.4L460.9-198.9z"/>
<path fill="#FFF7FB" d="M601.2,134.1l2.1,1.2v2.4l-2.1,1.2l-2.1-1.2v-2.4L601.2,134.1z"/>
<path fill="#ECE2F0" d="M466.1,43.1l3,1.7v3.5l-3,1.7l-3-1.7v-3.5L466.1,43.1z"/>
<path fill="#FFF7FB" d="M637.6,197.1l2.1,1.2v2.4l-2.1,1.2l-2.1-1.2v-2.4L637.6,197.1z"/>
<path fill="#FFF7FB" d="M549.2-9.9l2.1,1.2v2.4L549.2-5l-2.1-1.2v-2.4L549.2-9.9z"/>
<path fill="#FFF7FB" d="M429.7,197.1l2.1,1.2v2.4l-2.1,1.2l-2.1-1.2v-2.4L429.7,197.1z"/>
<path fill="#FFF7FB" d="M502.5,35.1l2.1,1.2v2.4l-2.1,1.2l-2.1-1.2v-2.4L502.5,35.1z"/>
<path fill="#FFF7FB" d="M383,98.1l2.1,1.2v2.4L383,103l-2.1-1.2v-2.4L383,98.1z"/>
<path fill="#FFF7FB" d="M590.8,206.1l2.1,1.2v2.4l-2.1,1.2l-2.1-1.2v-2.4L590.8,206.1z"/>
<path fill="#FFF7FB" d="M481.7,287.1l2.1,1.2v2.4l-2.1,1.2l-2.1-1.2v-2.4L481.7,287.1z"/>
<path fill="#ECE2F0" d="M518.1,133.1l3,1.7v3.5l-3,1.7l-3-1.7v-3.5L518.1,133.1z"/>
<path fill="#FFF7FB" d="M440.1,89.1l2.1,1.2v2.4l-2.1,1.2l-2.1-1.2v-2.4L440.1,89.1z"/>
<path fill="#FFF7FB" d="M606.4,71.1l2.1,1.2v2.4l-2.1,1.2l-2.1-1.2v-2.4L606.4,71.1z"/>
<path fill="#FFF7FB" d="M450.5,215.1l2.1,1.2v2.4l-2.1,1.2l-2.1-1.2v-2.4L450.5,215.1z"/>
<path fill="#ECE2F0" d="M559.6,205.1l3,1.7v3.5l-3,1.7l-3-1.7v-3.5L559.6,205.1z"/>
<path fill="#FFF7FB" d="M699.9,125.1l2.1,1.2v2.4l-2.1,1.2l-2.1-1.2v-2.4L699.9,125.1z"/>
<path fill="#FFF7FB" d="M549.2,44.1l2.1,1.2v2.4l-2.1,1.2l-2.1-1.2v-2.4L549.2,44.1z"/>
<path fill="#FFF7FB" d="M648-324.9l2.1,1.2v2.4L648-320l-2.1-1.2v-2.4L648-324.9z"/>
<path fill="#FFF7FB" d="M429.7-72.9l2.1,1.2v2.4l-2.1,1.2l-2.1-1.2v-2.4L429.7-72.9z"/>
<path fill="#FFF7FB" d="M684.3,206.1l2.1,1.2v2.4l-2.1,1.2l-2.1-1.2v-2.4L684.3,206.1z"/>
<path fill="#FFF7FB" d="M725.9,134.1l2.1,1.2v2.4l-2.1,1.2l-2.1-1.2v-2.4L725.9,134.1z"/>
<path fill="#FFF7FB" d="M388.2,161.1l2.1,1.2v2.4l-2.1,1.2l-2.1-1.2v-2.4L388.2,161.1z"/>
<path fill="#FFF7FB" d="M393.4,134.1l2.1,1.2v2.4l-2.1,1.2l-2.1-1.2v-2.4L393.4,134.1z"/>
<path fill="#FFF7FB" d="M694.7-243.9l2.1,1.2v2.4l-2.1,1.2l-2.1-1.2v-2.4L694.7-243.9z"/>
<path fill="#FFF7FB" d="M731.1,251.1l2.1,1.2v2.4l-2.1,1.2l-2.1-1.2v-2.4L731.1,251.1z"/>
<path fill="#FFF7FB" d="M419.3-90.9l2.1,1.2v2.4l-2.1,1.2l-2.1-1.2v-2.4L419.3-90.9z"/>
<path fill="#FFF7FB" d="M627.2,233.1l2.1,1.2v2.4l-2.1,1.2l-2.1-1.2v-2.4L627.2,233.1z"/>
<path fill="#FFF7FB" d="M419.3,89.1l2.1,1.2v2.4l-2.1,1.2l-2.1-1.2v-2.4L419.3,89.1z"/>
<path fill="#FFF7FB" d="M331,170.1l2.1,1.2v2.4L331,175l-2.1-1.2v-2.4L331,170.1z"/>
<path fill="#FFF7FB" d="M544.1,125.1l2.1,1.2v2.4l-2.1,1.2l-2.1-1.2v-2.4L544.1,125.1z"/>
<path fill="#FFF7FB" d="M601.2,224.1l2.1,1.2v2.4l-2.1,1.2l-2.1-1.2v-2.4L601.2,224.1z"/>
<path fill="#FFF7FB" d="M575.2,197.1l2.1,1.2v2.4l-2.1,1.2l-2.1-1.2v-2.4L575.2,197.1z"/>
<path fill="#FFF7FB" d="M564.8,35.1l2.1,1.2v2.4l-2.1,1.2l-2.1-1.2v-2.4L564.8,35.1z"/>
<path fill="#FFF7FB" d="M455.7,170.1l2.1,1.2v2.4l-2.1,1.2l-2.1-1.2v-2.4L455.7,170.1z"/>
<path fill="#FFF7FB" d="M414.1-81.9l2.1,1.2v2.4l-2.1,1.2l-2.1-1.2v-2.4L414.1-81.9z"/>
<path fill="#FFF7FB" d="M622,116.1l2.1,1.2v2.4L622,121l-2.1-1.2v-2.4L622,116.1z"/>
</svg>
